<svg id="visual" viewBox="0 0 900 600" width="900" height="600" xmlns="http://www.w3.org/2000/svg" xmlns:xlink="http://www.w3.org/1999/xlink" version="1.1"><rect x="0" y="0" width="900" height="600" fill="#FF5964"></rect><path d="M0 463L21.5 461.8C43 460.7 86 458.3 128.8 461.8C171.7 465.3 214.3 474.7 257.2 477.7C300 480.7 343 477.3 385.8 472.2C428.7 467 471.3 460 514.2 461C557 462 600 471 642.8 470.3C685.7 469.7 728.3 459.3 771.2 456.8C814 454.3 857 459.7 878.5 462.3L900 465L900 601L878.5 601C857 601 814 601 771.2 601C728.3 601 685.7 601 642.8 601C600 601 557 601 514.2 601C471.3 601 428.7 601 385.8 601C343 601 300 601 257.2 601C214.3 601 171.7 601 128.8 601C86 601 43 601 21.5 601L0 601Z" fill="#35a7ff"></path><path d="M0 472L21.5 477.5C43 483 86 494 128.8 495.8C171.7 497.7 214.3 490.3 257.2 492.3C300 494.3 343 505.7 385.8 505.5C428.7 505.3 471.3 493.7 514.2 493C557 492.3 600 502.7 642.8 507.2C685.7 511.7 728.3 510.3 771.2 504.3C814 498.3 857 487.7 878.5 482.3L900 477L900 601L878.5 601C857 601 814 601 771.2 601C728.3 601 685.7 601 642.8 601C600 601 557 601 514.2 601C471.3 601 428.7 601 385.8 601C343 601 300 601 257.2 601C214.3 601 171.7 601 128.8 601C86 601 43 601 21.5 601L0 601Z" fill="#3a95e1"></path><path d="M0 535L21.5 528.7C43 522.3 86 509.7 128.8 507.7C171.7 505.7 214.3 514.3 257.2 520.8C300 527.3 343 531.7 385.8 530.8C428.7 530 471.3 524 514.2 521.8C557 519.7 600 521.3 642.8 524.3C685.7 527.3 728.3 531.7 771.2 531.7C814 531.7 857 527.3 878.5 525.2L900 523L900 601L878.5 601C857 601 814 601 771.2 601C728.3 601 685.7 601 642.8 601C600 601 557 601 514.2 601C471.3 601 428.7 601 385.8 601C343 601 300 601 257.2 601C214.3 601 171.7 601 128.8 601C86 601 43 601 21.5 601L0 601Z" fill="#3b83c4"></path><path d="M0 527L21.5 532.3C43 537.7 86 548.3 128.8 549C171.7 549.7 214.3 540.3 257.2 539.7C300 539 343 547 385.8 549.7C428.7 552.3 471.3 549.7 514.2 550.8C557 552 600 557 642.8 559C685.7 561 728.3 560 771.2 554.8C814 549.7 857 540.3 878.5 535.7L900 531L900 601L878.5 601C857 601 814 601 771.2 601C728.3 601 685.7 601 642.8 601C600 601 557 601 514.2 601C471.3 601 428.7 601 385.8 601C343 601 300 601 257.2 601C214.3 601 171.7 601 128.8 601C86 601 43 601 21.5 601L0 601Z" fill="#3a72a8"></path><path d="M0 555L21.5 556C43 557 86 559 128.8 564.3C171.7 569.7 214.3 578.3 257.2 581.2C300 584 343 581 385.8 579.7C428.7 578.3 471.3 578.7 514.2 578.3C557 578 600 577 642.8 577.7C685.7 578.3 728.3 580.7 771.2 580.3C814 580 857 577 878.5 575.5L900 574L900 601L878.5 601C857 601 814 601 771.2 601C728.3 601 685.7 601 642.8 601C600 601 557 601 514.2 601C471.3 601 428.7 601 385.8 601C343 601 300 601 257.2 601C214.3 601 171.7 601 128.8 601C86 601 43 601 21.5 601L0 601Z" fill="#38618c"></path></svg>