<svg id="visual" viewBox="0 0 900 600" width="900" height="600" xmlns="http://www.w3.org/2000/svg" xmlns:xlink="http://www.w3.org/1999/xlink" version="1.1"><rect x="0" y="0" width="900" height="600" fill="#1DB954"></rect><path d="M0 457L21.5 461.8C43 466.7 86 476.3 128.8 475C171.7 473.7 214.3 461.3 257.2 453.5C300 445.7 343 442.3 385.8 441.8C428.7 441.3 471.3 443.7 514.2 445C557 446.3 600 446.7 642.8 450.8C685.7 455 728.3 463 771.2 469.2C814 475.3 857 479.7 878.5 481.8L900 484L900 601L878.5 601C857 601 814 601 771.2 601C728.3 601 685.7 601 642.8 601C600 601 557 601 514.2 601C471.3 601 428.7 601 385.8 601C343 601 300 601 257.2 601C214.3 601 171.7 601 128.8 601C86 601 43 601 21.5 601L0 601Z" fill="#ffe74c"></path><path d="M0 484L21.5 481.2C43 478.3 86 472.7 128.8 475.2C171.7 477.7 214.3 488.3 257.2 491.5C300 494.7 343 490.3 385.8 487.7C428.7 485 471.3 484 514.2 485.7C557 487.3 600 491.7 642.8 493C685.7 494.3 728.3 492.7 771.2 491.3C814 490 857 489 878.5 488.5L900 488L900 601L878.5 601C857 601 814 601 771.2 601C728.3 601 685.7 601 642.8 601C600 601 557 601 514.2 601C471.3 601 428.7 601 385.8 601C343 601 300 601 257.2 601C214.3 601 171.7 601 128.8 601C86 601 43 601 21.5 601L0 601Z" fill="#91ec83"></path><path d="M0 541L21.5 533.8C43 526.7 86 512.3 128.8 508.5C171.7 504.7 214.3 511.3 257.2 516C300 520.7 343 523.3 385.8 524.5C428.7 525.7 471.3 525.3 514.2 520.5C557 515.7 600 506.3 642.8 508.2C685.7 510 728.3 523 771.2 524.2C814 525.3 857 514.7 878.5 509.3L900 504L900 601L878.5 601C857 601 814 601 771.2 601C728.3 601 685.7 601 642.8 601C600 601 557 601 514.2 601C471.3 601 428.7 601 385.8 601C343 601 300 601 257.2 601C214.3 601 171.7 601 128.8 601C86 601 43 601 21.5 601L0 601Z" fill="#00e0c5"></path><path d="M0 558L21.5 555.2C43 552.3 86 546.7 128.8 546.7C171.7 546.7 214.3 552.3 257.2 550.3C300 548.3 343 538.7 385.8 536.5C428.7 534.3 471.3 539.7 514.2 545C557 550.3 600 555.7 642.8 558.2C685.7 560.7 728.3 560.3 771.2 559C814 557.7 857 555.3 878.5 554.2L900 553L900 601L878.5 601C857 601 814 601 771.2 601C728.3 601 685.7 601 642.8 601C600 601 557 601 514.2 601C471.3 601 428.7 601 385.8 601C343 601 300 601 257.2 601C214.3 601 171.7 601 128.8 601C86 601 43 601 21.5 601L0 601Z" fill="#00c9f4"></path><path d="M0 576L21.5 577C43 578 86 580 128.8 579.5C171.7 579 214.3 576 257.2 574.2C300 572.3 343 571.7 385.8 572.7C428.7 573.7 471.3 576.3 514.2 573.3C557 570.3 600 561.7 642.8 560.7C685.7 559.7 728.3 566.3 771.2 568.7C814 571 857 569 878.5 568L900 567L900 601L878.5 601C857 601 814 601 771.2 601C728.3 601 685.7 601 642.8 601C600 601 557 601 514.2 601C471.3 601 428.7 601 385.8 601C343 601 300 601 257.2 601C214.3 601 171.7 601 128.8 601C86 601 43 601 21.5 601L0 601Z" fill="#35a7ff"></path></svg>