<svg id="visual" viewBox="0 0 900 600" width="900" height="600" xmlns="http://www.w3.org/2000/svg" xmlns:xlink="http://www.w3.org/1999/xlink" version="1.1"><rect x="0" y="0" width="900" height="600" fill="#38618C"></rect><path d="M0 452L21.5 458.3C43 464.7 86 477.3 128.8 479.7C171.7 482 214.3 474 257.2 467.8C300 461.7 343 457.3 385.8 455.7C428.7 454 471.3 455 514.2 458.3C557 461.7 600 467.3 642.8 471.8C685.7 476.3 728.3 479.7 771.2 479.3C814 479 857 475 878.5 473L900 471L900 601L878.5 601C857 601 814 601 771.2 601C728.3 601 685.7 601 642.8 601C600 601 557 601 514.2 601C471.3 601 428.7 601 385.8 601C343 601 300 601 257.2 601C214.3 601 171.7 601 128.8 601C86 601 43 601 21.5 601L0 601Z" fill="#ffe74c"></path><path d="M0 484L21.5 483.7C43 483.3 86 482.7 128.8 482.5C171.7 482.3 214.3 482.7 257.2 482.7C300 482.7 343 482.3 385.8 485.2C428.7 488 471.3 494 514.2 497.7C557 501.3 600 502.7 642.8 502.7C685.7 502.7 728.3 501.3 771.2 495.2C814 489 857 478 878.5 472.5L900 467L900 601L878.5 601C857 601 814 601 771.2 601C728.3 601 685.7 601 642.8 601C600 601 557 601 514.2 601C471.3 601 428.7 601 385.8 601C343 601 300 601 257.2 601C214.3 601 171.7 601 128.8 601C86 601 43 601 21.5 601L0 601Z" fill="#cfde43"></path><path d="M0 510L21.5 508.5C43 507 86 504 128.8 507.7C171.7 511.3 214.3 521.7 257.2 526.5C300 531.3 343 530.7 385.8 527.7C428.7 524.7 471.3 519.3 514.2 518.3C557 517.3 600 520.7 642.8 519.2C685.7 517.7 728.3 511.3 771.2 513.5C814 515.7 857 526.3 878.5 531.7L900 537L900 601L878.5 601C857 601 814 601 771.2 601C728.3 601 685.7 601 642.8 601C600 601 557 601 514.2 601C471.3 601 428.7 601 385.8 601C343 601 300 601 257.2 601C214.3 601 171.7 601 128.8 601C86 601 43 601 21.5 601L0 601Z" fill="#9fd343"></path><path d="M0 559L21.5 556.3C43 553.7 86 548.3 128.8 549.2C171.7 550 214.3 557 257.2 555.3C300 553.7 343 543.3 385.8 539.5C428.7 535.7 471.3 538.3 514.2 537.3C557 536.3 600 531.7 642.8 535.5C685.7 539.3 728.3 551.7 771.2 554.8C814 558 857 552 878.5 549L900 546L900 601L878.5 601C857 601 814 601 771.2 601C728.3 601 685.7 601 642.8 601C600 601 557 601 514.2 601C471.3 601 428.7 601 385.8 601C343 601 300 601 257.2 601C214.3 601 171.7 601 128.8 601C86 601 43 601 21.5 601L0 601Z" fill="#6bc74a"></path><path d="M0 568L21.5 566.5C43 565 86 562 128.8 559.7C171.7 557.3 214.3 555.7 257.2 556.7C300 557.7 343 561.3 385.8 565.8C428.7 570.3 471.3 575.7 514.2 575C557 574.3 600 567.7 642.8 565.5C685.7 563.3 728.3 565.7 771.2 564.2C814 562.7 857 557.3 878.5 554.7L900 552L900 601L878.5 601C857 601 814 601 771.2 601C728.3 601 685.7 601 642.8 601C600 601 557 601 514.2 601C471.3 601 428.7 601 385.8 601C343 601 300 601 257.2 601C214.3 601 171.7 601 128.8 601C86 601 43 601 21.5 601L0 601Z" fill="#1db954"></path></svg>