<svg id="SvgjsSvg1001" width="288" height="288" xmlns="http://www.w3.org/2000/svg" version="1.1" xmlns:xlink="http://www.w3.org/1999/xlink" xmlns:svgjs="http://svgjs.com/svgjs"><defs id="SvgjsDefs1002"></defs><g id="SvgjsG1008" transform="matrix(1,0,0,1,0,0)"><svg xmlns="http://www.w3.org/2000/svg" enable-background="new 0 0 433.664 433.664" viewBox="0 0 433.664 433.664" width="288" height="288"><path d="M258.048 37.658h-82.944c-8.483 0-15.36 6.877-15.36 15.36v327.526c0 8.483 6.877 15.36 15.36 15.36h82.944c8.483 0 15.36-6.877 15.36-15.36V53.018C273.408 44.534 266.531 37.658 258.048 37.658zM418.304 228.634H335.36c-8.483 0-15.36 6.877-15.36 15.36v136.653c0 8.483 6.877 15.36 15.36 15.36h82.944c8.483 0 15.36-6.877 15.36-15.36V243.994C433.664 235.51 426.787 228.634 418.304 228.634zM98.304 160.026H15.36c-8.483 0-15.36 6.877-15.36 15.36v205.056c0 8.483 6.877 15.36 15.36 15.36h82.944c8.483 0 15.36-6.877 15.36-15.36V175.386C113.664 166.903 106.787 160.026 98.304 160.026z" fill="#ffffff" class="color000 svgShape"></path></svg></g></svg>