<svg id="visual" viewBox="0 0 450 900" width="450" height="900" xmlns="http://www.w3.org/2000/svg" xmlns:xlink="http://www.w3.org/1999/xlink" version="1.1"><rect x="0" y="0" width="450" height="900" fill="#001220"></rect><g fill="none" stroke="#1ed760" stroke-width="2"><circle r="24" cx="177" cy="594"></circle><circle r="19" cx="69" cy="849"></circle><circle r="18" cx="313" cy="896"></circle><circle r="19" cx="195" cy="712"></circle><circle r="20" cx="19" cy="28"></circle><circle r="21" cx="155" cy="840"></circle><circle r="19" cx="13" cy="104"></circle><circle r="18" cx="421" cy="196"></circle><circle r="20" cx="172" cy="56"></circle><circle r="21" cx="120" cy="793"></circle><circle r="22" cx="8" cy="590"></circle><circle r="21" cx="175" cy="783"></circle><circle r="19" cx="408" cy="600"></circle><circle r="22" cx="291" cy="14"></circle><circle r="21" cx="281" cy="198"></circle><circle r="19" cx="281" cy="506"></circle><circle r="19" cx="438" cy="456"></circle><circle r="18" cx="355" cy="480"></circle><circle r="20" cx="127" cy="724"></circle><circle r="20" cx="24" cy="398"></circle><circle r="18" cx="359" cy="264"></circle><circle r="21" cx="111" cy="560"></circle><circle r="21" cx="274" cy="714"></circle><circle r="18" cx="417" cy="101"></circle><circle r="20" cx="147" cy="437"></circle><circle r="18" cx="327" cy="703"></circle><circle r="21" cx="139" cy="216"></circle><circle r="22" cx="46" cy="227"></circle><circle r="22" cx="201" cy="327"></circle><circle r="18" cx="262" cy="788"></circle><circle r="20" cx="239" cy="272"></circle><circle r="20" cx="371" cy="839"></circle><circle r="22" cx="428" cy="674"></circle><circle r="21" cx="79" cy="43"></circle><circle r="22" cx="68" cy="494"></circle><circle r="18" cx="148" cy="4"></circle><circle r="22" cx="73" cy="599"></circle><circle r="21" cx="118" cy="357"></circle><circle r="19" cx="61" cy="349"></circle><circle r="19" cx="229" cy="220"></circle><circle r="21" cx="288" cy="356"></circle><circle r="22" cx="315" cy="637"></circle><circle r="19" cx="339" cy="165"></circle><circle r="18" cx="48" cy="643"></circle><circle r="22" cx="332" cy="535"></circle></g></svg>